%TF.GenerationSoftware,KiCad,Pcbnew,7.0.8*%
%TF.CreationDate,2024-12-10T13:47:31+00:00*%
%TF.ProjectId,working,776f726b-696e-4672-9e6b-696361645f70,rev?*%
%TF.SameCoordinates,Original*%
%TF.FileFunction,Legend,Top*%
%TF.FilePolarity,Positive*%
%FSLAX46Y46*%
G04 Gerber Fmt 4.6, Leading zero omitted, Abs format (unit mm)*
G04 Created by KiCad (PCBNEW 7.0.8) date 2024-12-10 13:47:31*
%MOMM*%
%LPD*%
G01*
G04 APERTURE LIST*
%ADD10C,0.200000*%
%ADD11C,0.150000*%
%ADD12C,0.120000*%
G04 APERTURE END LIST*
D10*
X-2082780Y2068244D02*
X-2606590Y2068244D01*
X-2606590Y2068244D02*
X-2701828Y2020625D01*
X-2701828Y2020625D02*
X-2749447Y1925387D01*
X-2749447Y1925387D02*
X-2749447Y1734911D01*
X-2749447Y1734911D02*
X-2701828Y1639673D01*
X-2130400Y2068244D02*
X-2082780Y1973006D01*
X-2082780Y1973006D02*
X-2082780Y1734911D01*
X-2082780Y1734911D02*
X-2130400Y1639673D01*
X-2130400Y1639673D02*
X-2225638Y1592054D01*
X-2225638Y1592054D02*
X-2320876Y1592054D01*
X-2320876Y1592054D02*
X-2416114Y1639673D01*
X-2416114Y1639673D02*
X-2463733Y1734911D01*
X-2463733Y1734911D02*
X-2463733Y1973006D01*
X-2463733Y1973006D02*
X-2511352Y2068244D01*
X-472780Y1639673D02*
X-1472780Y1639673D01*
X-1091828Y1639673D02*
X-1139447Y1734911D01*
X-1139447Y1734911D02*
X-1139447Y1925387D01*
X-1139447Y1925387D02*
X-1091828Y2020625D01*
X-1091828Y2020625D02*
X-1044209Y2068244D01*
X-1044209Y2068244D02*
X-948971Y2115863D01*
X-948971Y2115863D02*
X-663257Y2115863D01*
X-663257Y2115863D02*
X-568019Y2068244D01*
X-568019Y2068244D02*
X-520400Y2020625D01*
X-520400Y2020625D02*
X-472780Y1925387D01*
X-472780Y1925387D02*
X-472780Y1734911D01*
X-472780Y1734911D02*
X-520400Y1639673D01*
X137219Y2115863D02*
X137219Y1639673D01*
X137219Y1639673D02*
X613409Y1592054D01*
X613409Y1592054D02*
X565790Y1639673D01*
X565790Y1639673D02*
X518171Y1734911D01*
X518171Y1734911D02*
X518171Y1973006D01*
X518171Y1973006D02*
X565790Y2068244D01*
X565790Y2068244D02*
X613409Y2115863D01*
X613409Y2115863D02*
X708647Y2163482D01*
X708647Y2163482D02*
X946742Y2163482D01*
X946742Y2163482D02*
X1041980Y2115863D01*
X1041980Y2115863D02*
X1089600Y2068244D01*
X1089600Y2068244D02*
X1137219Y1973006D01*
X1137219Y1973006D02*
X1137219Y1734911D01*
X1137219Y1734911D02*
X1089600Y1639673D01*
X1089600Y1639673D02*
X1041980Y1592054D01*
X470552Y2496816D02*
X1137219Y2734911D01*
X1137219Y2734911D02*
X470552Y2973006D01*
X-2470400Y4560625D02*
X-2422780Y4465387D01*
X-2422780Y4465387D02*
X-2422780Y4274911D01*
X-2422780Y4274911D02*
X-2470400Y4179673D01*
X-2470400Y4179673D02*
X-2565638Y4132054D01*
X-2565638Y4132054D02*
X-2946590Y4132054D01*
X-2946590Y4132054D02*
X-3041828Y4179673D01*
X-3041828Y4179673D02*
X-3089447Y4274911D01*
X-3089447Y4274911D02*
X-3089447Y4465387D01*
X-3089447Y4465387D02*
X-3041828Y4560625D01*
X-3041828Y4560625D02*
X-2946590Y4608244D01*
X-2946590Y4608244D02*
X-2851352Y4608244D01*
X-2851352Y4608244D02*
X-2756114Y4132054D01*
X-3089447Y5036816D02*
X-2422780Y5036816D01*
X-2994209Y5036816D02*
X-3041828Y5084435D01*
X-3041828Y5084435D02*
X-3089447Y5179673D01*
X-3089447Y5179673D02*
X-3089447Y5322530D01*
X-3089447Y5322530D02*
X-3041828Y5417768D01*
X-3041828Y5417768D02*
X-2946590Y5465387D01*
X-2946590Y5465387D02*
X-2422780Y5465387D01*
X-2470400Y6370149D02*
X-2422780Y6274911D01*
X-2422780Y6274911D02*
X-2422780Y6084435D01*
X-2422780Y6084435D02*
X-2470400Y5989197D01*
X-2470400Y5989197D02*
X-2518019Y5941578D01*
X-2518019Y5941578D02*
X-2613257Y5893959D01*
X-2613257Y5893959D02*
X-2898971Y5893959D01*
X-2898971Y5893959D02*
X-2994209Y5941578D01*
X-2994209Y5941578D02*
X-3041828Y5989197D01*
X-3041828Y5989197D02*
X-3089447Y6084435D01*
X-3089447Y6084435D02*
X-3089447Y6274911D01*
X-3089447Y6274911D02*
X-3041828Y6370149D01*
X-1479447Y4084435D02*
X-812780Y4274911D01*
X-812780Y4274911D02*
X-1288971Y4465387D01*
X-1288971Y4465387D02*
X-812780Y4655863D01*
X-812780Y4655863D02*
X-1479447Y4846339D01*
X-812780Y5655863D02*
X-1812780Y5655863D01*
X-860400Y5655863D02*
X-812780Y5560625D01*
X-812780Y5560625D02*
X-812780Y5370149D01*
X-812780Y5370149D02*
X-860400Y5274911D01*
X-860400Y5274911D02*
X-908019Y5227292D01*
X-908019Y5227292D02*
X-1003257Y5179673D01*
X-1003257Y5179673D02*
X-1288971Y5179673D01*
X-1288971Y5179673D02*
X-1384209Y5227292D01*
X-1384209Y5227292D02*
X-1431828Y5274911D01*
X-1431828Y5274911D02*
X-1479447Y5370149D01*
X-1479447Y5370149D02*
X-1479447Y5560625D01*
X-1479447Y5560625D02*
X-1431828Y5655863D01*
X130552Y4608244D02*
X940076Y4608244D01*
X940076Y4608244D02*
X1035314Y4560625D01*
X1035314Y4560625D02*
X1082933Y4513006D01*
X1082933Y4513006D02*
X1130552Y4417768D01*
X1130552Y4417768D02*
X1130552Y4274911D01*
X1130552Y4274911D02*
X1082933Y4179673D01*
X749600Y4608244D02*
X797219Y4513006D01*
X797219Y4513006D02*
X797219Y4322530D01*
X797219Y4322530D02*
X749600Y4227292D01*
X749600Y4227292D02*
X701980Y4179673D01*
X701980Y4179673D02*
X606742Y4132054D01*
X606742Y4132054D02*
X321028Y4132054D01*
X321028Y4132054D02*
X225790Y4179673D01*
X225790Y4179673D02*
X178171Y4227292D01*
X178171Y4227292D02*
X130552Y4322530D01*
X130552Y4322530D02*
X130552Y4513006D01*
X130552Y4513006D02*
X178171Y4608244D01*
X130552Y5084435D02*
X797219Y5084435D01*
X225790Y5084435D02*
X178171Y5132054D01*
X178171Y5132054D02*
X130552Y5227292D01*
X130552Y5227292D02*
X130552Y5370149D01*
X130552Y5370149D02*
X178171Y5465387D01*
X178171Y5465387D02*
X273409Y5513006D01*
X273409Y5513006D02*
X797219Y5513006D01*
X797219Y6417768D02*
X-202780Y6417768D01*
X749600Y6417768D02*
X797219Y6322530D01*
X797219Y6322530D02*
X797219Y6132054D01*
X797219Y6132054D02*
X749600Y6036816D01*
X749600Y6036816D02*
X701980Y5989197D01*
X701980Y5989197D02*
X606742Y5941578D01*
X606742Y5941578D02*
X321028Y5941578D01*
X321028Y5941578D02*
X225790Y5989197D01*
X225790Y5989197D02*
X178171Y6036816D01*
X178171Y6036816D02*
X130552Y6132054D01*
X130552Y6132054D02*
X130552Y6322530D01*
X130552Y6322530D02*
X178171Y6417768D01*
X2359600Y4132054D02*
X2407219Y4227292D01*
X2407219Y4227292D02*
X2407219Y4417768D01*
X2407219Y4417768D02*
X2359600Y4513006D01*
X2359600Y4513006D02*
X2264361Y4560625D01*
X2264361Y4560625D02*
X2216742Y4560625D01*
X2216742Y4560625D02*
X2121504Y4513006D01*
X2121504Y4513006D02*
X2073885Y4417768D01*
X2073885Y4417768D02*
X2073885Y4274911D01*
X2073885Y4274911D02*
X2026266Y4179673D01*
X2026266Y4179673D02*
X1931028Y4132054D01*
X1931028Y4132054D02*
X1883409Y4132054D01*
X1883409Y4132054D02*
X1788171Y4179673D01*
X1788171Y4179673D02*
X1740552Y4274911D01*
X1740552Y4274911D02*
X1740552Y4417768D01*
X1740552Y4417768D02*
X1788171Y4513006D01*
X2407219Y4989197D02*
X1407219Y4989197D01*
X1788171Y4989197D02*
X1740552Y5084435D01*
X1740552Y5084435D02*
X1740552Y5274911D01*
X1740552Y5274911D02*
X1788171Y5370149D01*
X1788171Y5370149D02*
X1835790Y5417768D01*
X1835790Y5417768D02*
X1931028Y5465387D01*
X1931028Y5465387D02*
X2216742Y5465387D01*
X2216742Y5465387D02*
X2311980Y5417768D01*
X2311980Y5417768D02*
X2359600Y5370149D01*
X2359600Y5370149D02*
X2407219Y5274911D01*
X2407219Y5274911D02*
X2407219Y5084435D01*
X2407219Y5084435D02*
X2359600Y4989197D01*
D11*
X-1738095Y-4169580D02*
X-1785714Y-4217200D01*
X-1785714Y-4217200D02*
X-1928571Y-4264819D01*
X-1928571Y-4264819D02*
X-2023809Y-4264819D01*
X-2023809Y-4264819D02*
X-2166666Y-4217200D01*
X-2166666Y-4217200D02*
X-2261904Y-4121961D01*
X-2261904Y-4121961D02*
X-2309523Y-4026723D01*
X-2309523Y-4026723D02*
X-2357142Y-3836247D01*
X-2357142Y-3836247D02*
X-2357142Y-3693390D01*
X-2357142Y-3693390D02*
X-2309523Y-3502914D01*
X-2309523Y-3502914D02*
X-2261904Y-3407676D01*
X-2261904Y-3407676D02*
X-2166666Y-3312438D01*
X-2166666Y-3312438D02*
X-2023809Y-3264819D01*
X-2023809Y-3264819D02*
X-1928571Y-3264819D01*
X-1928571Y-3264819D02*
X-1785714Y-3312438D01*
X-1785714Y-3312438D02*
X-1738095Y-3360057D01*
X-1119047Y-3264819D02*
X-928571Y-3264819D01*
X-928571Y-3264819D02*
X-833333Y-3312438D01*
X-833333Y-3312438D02*
X-738095Y-3407676D01*
X-738095Y-3407676D02*
X-690476Y-3598152D01*
X-690476Y-3598152D02*
X-690476Y-3931485D01*
X-690476Y-3931485D02*
X-738095Y-4121961D01*
X-738095Y-4121961D02*
X-833333Y-4217200D01*
X-833333Y-4217200D02*
X-928571Y-4264819D01*
X-928571Y-4264819D02*
X-1119047Y-4264819D01*
X-1119047Y-4264819D02*
X-1214285Y-4217200D01*
X-1214285Y-4217200D02*
X-1309523Y-4121961D01*
X-1309523Y-4121961D02*
X-1357142Y-3931485D01*
X-1357142Y-3931485D02*
X-1357142Y-3598152D01*
X-1357142Y-3598152D02*
X-1309523Y-3407676D01*
X-1309523Y-3407676D02*
X-1214285Y-3312438D01*
X-1214285Y-3312438D02*
X-1119047Y-3264819D01*
X-261904Y-4264819D02*
X-261904Y-3264819D01*
X-261904Y-3264819D02*
X309523Y-4264819D01*
X309523Y-4264819D02*
X309523Y-3264819D01*
X785714Y-4264819D02*
X785714Y-3264819D01*
X785714Y-3264819D02*
X1357142Y-4264819D01*
X1357142Y-4264819D02*
X1357142Y-3264819D01*
X2261904Y-3598152D02*
X2261904Y-4264819D01*
X2023809Y-3217200D02*
X1785714Y-3931485D01*
X1785714Y-3931485D02*
X2404761Y-3931485D01*
X7556666Y815180D02*
X7223333Y1291371D01*
X6985238Y815180D02*
X6985238Y1815180D01*
X6985238Y1815180D02*
X7366190Y1815180D01*
X7366190Y1815180D02*
X7461428Y1767561D01*
X7461428Y1767561D02*
X7509047Y1719942D01*
X7509047Y1719942D02*
X7556666Y1624704D01*
X7556666Y1624704D02*
X7556666Y1481847D01*
X7556666Y1481847D02*
X7509047Y1386609D01*
X7509047Y1386609D02*
X7461428Y1338990D01*
X7461428Y1338990D02*
X7366190Y1291371D01*
X7366190Y1291371D02*
X6985238Y1291371D01*
X7985238Y1338990D02*
X8318571Y1338990D01*
X8461428Y815180D02*
X7985238Y815180D01*
X7985238Y815180D02*
X7985238Y1815180D01*
X7985238Y1815180D02*
X8461428Y1815180D01*
X9223333Y1338990D02*
X8890000Y1338990D01*
X8890000Y815180D02*
X8890000Y1815180D01*
X8890000Y1815180D02*
X9366190Y1815180D01*
X9890000Y1815180D02*
X9890000Y1577085D01*
X9651905Y1672323D02*
X9890000Y1577085D01*
X9890000Y1577085D02*
X10128095Y1672323D01*
X9747143Y1386609D02*
X9890000Y1577085D01*
X9890000Y1577085D02*
X10032857Y1386609D01*
X10651905Y1815180D02*
X10651905Y1577085D01*
X10413810Y1672323D02*
X10651905Y1577085D01*
X10651905Y1577085D02*
X10890000Y1672323D01*
X10509048Y1386609D02*
X10651905Y1577085D01*
X10651905Y1577085D02*
X10794762Y1386609D01*
X-1738095Y-5439580D02*
X-1785714Y-5487200D01*
X-1785714Y-5487200D02*
X-1928571Y-5534819D01*
X-1928571Y-5534819D02*
X-2023809Y-5534819D01*
X-2023809Y-5534819D02*
X-2166666Y-5487200D01*
X-2166666Y-5487200D02*
X-2261904Y-5391961D01*
X-2261904Y-5391961D02*
X-2309523Y-5296723D01*
X-2309523Y-5296723D02*
X-2357142Y-5106247D01*
X-2357142Y-5106247D02*
X-2357142Y-4963390D01*
X-2357142Y-4963390D02*
X-2309523Y-4772914D01*
X-2309523Y-4772914D02*
X-2261904Y-4677676D01*
X-2261904Y-4677676D02*
X-2166666Y-4582438D01*
X-2166666Y-4582438D02*
X-2023809Y-4534819D01*
X-2023809Y-4534819D02*
X-1928571Y-4534819D01*
X-1928571Y-4534819D02*
X-1785714Y-4582438D01*
X-1785714Y-4582438D02*
X-1738095Y-4630057D01*
X-1119047Y-4534819D02*
X-928571Y-4534819D01*
X-928571Y-4534819D02*
X-833333Y-4582438D01*
X-833333Y-4582438D02*
X-738095Y-4677676D01*
X-738095Y-4677676D02*
X-690476Y-4868152D01*
X-690476Y-4868152D02*
X-690476Y-5201485D01*
X-690476Y-5201485D02*
X-738095Y-5391961D01*
X-738095Y-5391961D02*
X-833333Y-5487200D01*
X-833333Y-5487200D02*
X-928571Y-5534819D01*
X-928571Y-5534819D02*
X-1119047Y-5534819D01*
X-1119047Y-5534819D02*
X-1214285Y-5487200D01*
X-1214285Y-5487200D02*
X-1309523Y-5391961D01*
X-1309523Y-5391961D02*
X-1357142Y-5201485D01*
X-1357142Y-5201485D02*
X-1357142Y-4868152D01*
X-1357142Y-4868152D02*
X-1309523Y-4677676D01*
X-1309523Y-4677676D02*
X-1214285Y-4582438D01*
X-1214285Y-4582438D02*
X-1119047Y-4534819D01*
X-261904Y-5534819D02*
X-261904Y-4534819D01*
X-261904Y-4534819D02*
X309523Y-5534819D01*
X309523Y-5534819D02*
X309523Y-4534819D01*
X785714Y-5534819D02*
X785714Y-4534819D01*
X785714Y-4534819D02*
X1357142Y-5534819D01*
X1357142Y-5534819D02*
X1357142Y-4534819D01*
X1738095Y-4534819D02*
X2357142Y-4534819D01*
X2357142Y-4534819D02*
X2023809Y-4915771D01*
X2023809Y-4915771D02*
X2166666Y-4915771D01*
X2166666Y-4915771D02*
X2261904Y-4963390D01*
X2261904Y-4963390D02*
X2309523Y-5011009D01*
X2309523Y-5011009D02*
X2357142Y-5106247D01*
X2357142Y-5106247D02*
X2357142Y-5344342D01*
X2357142Y-5344342D02*
X2309523Y-5439580D01*
X2309523Y-5439580D02*
X2261904Y-5487200D01*
X2261904Y-5487200D02*
X2166666Y-5534819D01*
X2166666Y-5534819D02*
X1880952Y-5534819D01*
X1880952Y-5534819D02*
X1785714Y-5487200D01*
X1785714Y-5487200D02*
X1738095Y-5439580D01*
X-1738095Y12340419D02*
X-1785714Y12292800D01*
X-1785714Y12292800D02*
X-1928571Y12245180D01*
X-1928571Y12245180D02*
X-2023809Y12245180D01*
X-2023809Y12245180D02*
X-2166666Y12292800D01*
X-2166666Y12292800D02*
X-2261904Y12388038D01*
X-2261904Y12388038D02*
X-2309523Y12483276D01*
X-2309523Y12483276D02*
X-2357142Y12673752D01*
X-2357142Y12673752D02*
X-2357142Y12816609D01*
X-2357142Y12816609D02*
X-2309523Y13007085D01*
X-2309523Y13007085D02*
X-2261904Y13102323D01*
X-2261904Y13102323D02*
X-2166666Y13197561D01*
X-2166666Y13197561D02*
X-2023809Y13245180D01*
X-2023809Y13245180D02*
X-1928571Y13245180D01*
X-1928571Y13245180D02*
X-1785714Y13197561D01*
X-1785714Y13197561D02*
X-1738095Y13149942D01*
X-1119047Y13245180D02*
X-928571Y13245180D01*
X-928571Y13245180D02*
X-833333Y13197561D01*
X-833333Y13197561D02*
X-738095Y13102323D01*
X-738095Y13102323D02*
X-690476Y12911847D01*
X-690476Y12911847D02*
X-690476Y12578514D01*
X-690476Y12578514D02*
X-738095Y12388038D01*
X-738095Y12388038D02*
X-833333Y12292800D01*
X-833333Y12292800D02*
X-928571Y12245180D01*
X-928571Y12245180D02*
X-1119047Y12245180D01*
X-1119047Y12245180D02*
X-1214285Y12292800D01*
X-1214285Y12292800D02*
X-1309523Y12388038D01*
X-1309523Y12388038D02*
X-1357142Y12578514D01*
X-1357142Y12578514D02*
X-1357142Y12911847D01*
X-1357142Y12911847D02*
X-1309523Y13102323D01*
X-1309523Y13102323D02*
X-1214285Y13197561D01*
X-1214285Y13197561D02*
X-1119047Y13245180D01*
X-261904Y12245180D02*
X-261904Y13245180D01*
X-261904Y13245180D02*
X309523Y12245180D01*
X309523Y12245180D02*
X309523Y13245180D01*
X785714Y12245180D02*
X785714Y13245180D01*
X785714Y13245180D02*
X1357142Y12245180D01*
X1357142Y12245180D02*
X1357142Y13245180D01*
X1785714Y13149942D02*
X1833333Y13197561D01*
X1833333Y13197561D02*
X1928571Y13245180D01*
X1928571Y13245180D02*
X2166666Y13245180D01*
X2166666Y13245180D02*
X2261904Y13197561D01*
X2261904Y13197561D02*
X2309523Y13149942D01*
X2309523Y13149942D02*
X2357142Y13054704D01*
X2357142Y13054704D02*
X2357142Y12959466D01*
X2357142Y12959466D02*
X2309523Y12816609D01*
X2309523Y12816609D02*
X1738095Y12245180D01*
X1738095Y12245180D02*
X2357142Y12245180D01*
X-1738095Y11070419D02*
X-1785714Y11022800D01*
X-1785714Y11022800D02*
X-1928571Y10975180D01*
X-1928571Y10975180D02*
X-2023809Y10975180D01*
X-2023809Y10975180D02*
X-2166666Y11022800D01*
X-2166666Y11022800D02*
X-2261904Y11118038D01*
X-2261904Y11118038D02*
X-2309523Y11213276D01*
X-2309523Y11213276D02*
X-2357142Y11403752D01*
X-2357142Y11403752D02*
X-2357142Y11546609D01*
X-2357142Y11546609D02*
X-2309523Y11737085D01*
X-2309523Y11737085D02*
X-2261904Y11832323D01*
X-2261904Y11832323D02*
X-2166666Y11927561D01*
X-2166666Y11927561D02*
X-2023809Y11975180D01*
X-2023809Y11975180D02*
X-1928571Y11975180D01*
X-1928571Y11975180D02*
X-1785714Y11927561D01*
X-1785714Y11927561D02*
X-1738095Y11879942D01*
X-1119047Y11975180D02*
X-928571Y11975180D01*
X-928571Y11975180D02*
X-833333Y11927561D01*
X-833333Y11927561D02*
X-738095Y11832323D01*
X-738095Y11832323D02*
X-690476Y11641847D01*
X-690476Y11641847D02*
X-690476Y11308514D01*
X-690476Y11308514D02*
X-738095Y11118038D01*
X-738095Y11118038D02*
X-833333Y11022800D01*
X-833333Y11022800D02*
X-928571Y10975180D01*
X-928571Y10975180D02*
X-1119047Y10975180D01*
X-1119047Y10975180D02*
X-1214285Y11022800D01*
X-1214285Y11022800D02*
X-1309523Y11118038D01*
X-1309523Y11118038D02*
X-1357142Y11308514D01*
X-1357142Y11308514D02*
X-1357142Y11641847D01*
X-1357142Y11641847D02*
X-1309523Y11832323D01*
X-1309523Y11832323D02*
X-1214285Y11927561D01*
X-1214285Y11927561D02*
X-1119047Y11975180D01*
X-261904Y10975180D02*
X-261904Y11975180D01*
X-261904Y11975180D02*
X309523Y10975180D01*
X309523Y10975180D02*
X309523Y11975180D01*
X785714Y10975180D02*
X785714Y11975180D01*
X785714Y11975180D02*
X1357142Y10975180D01*
X1357142Y10975180D02*
X1357142Y11975180D01*
X2357142Y10975180D02*
X1785714Y10975180D01*
X2071428Y10975180D02*
X2071428Y11975180D01*
X2071428Y11975180D02*
X1976190Y11832323D01*
X1976190Y11832323D02*
X1880952Y11737085D01*
X1880952Y11737085D02*
X1785714Y11689466D01*
X-11493333Y815180D02*
X-11826666Y1291371D01*
X-12064761Y815180D02*
X-12064761Y1815180D01*
X-12064761Y1815180D02*
X-11683809Y1815180D01*
X-11683809Y1815180D02*
X-11588571Y1767561D01*
X-11588571Y1767561D02*
X-11540952Y1719942D01*
X-11540952Y1719942D02*
X-11493333Y1624704D01*
X-11493333Y1624704D02*
X-11493333Y1481847D01*
X-11493333Y1481847D02*
X-11540952Y1386609D01*
X-11540952Y1386609D02*
X-11588571Y1338990D01*
X-11588571Y1338990D02*
X-11683809Y1291371D01*
X-11683809Y1291371D02*
X-12064761Y1291371D01*
X-11064761Y1338990D02*
X-10731428Y1338990D01*
X-10588571Y815180D02*
X-11064761Y815180D01*
X-11064761Y815180D02*
X-11064761Y1815180D01*
X-11064761Y1815180D02*
X-10588571Y1815180D01*
X-9826666Y1338990D02*
X-10159999Y1338990D01*
X-10159999Y815180D02*
X-10159999Y1815180D01*
X-10159999Y1815180D02*
X-9683809Y1815180D01*
X-9159999Y1815180D02*
X-9159999Y1577085D01*
X-9398094Y1672323D02*
X-9159999Y1577085D01*
X-9159999Y1577085D02*
X-8921904Y1672323D01*
X-9302856Y1386609D02*
X-9159999Y1577085D01*
X-9159999Y1577085D02*
X-9017142Y1386609D01*
X-8398094Y1815180D02*
X-8398094Y1577085D01*
X-8636189Y1672323D02*
X-8398094Y1577085D01*
X-8398094Y1577085D02*
X-8159999Y1672323D01*
X-8540951Y1386609D02*
X-8398094Y1577085D01*
X-8398094Y1577085D02*
X-8255237Y1386609D01*
D12*
%TO.C,CONN4*%
X-3870000Y-8950000D02*
X-3870000Y-7620000D01*
X-2540000Y-8950000D02*
X-3870000Y-8950000D01*
X-1270000Y-8950000D02*
X6410000Y-8950000D01*
X-1270000Y-8950000D02*
X-1270000Y-6290000D01*
X6410000Y-8950000D02*
X6410000Y-6290000D01*
X-1270000Y-6290000D02*
X6410000Y-6290000D01*
%TO.C,CONN3*%
X-3870000Y-12760000D02*
X-3870000Y-11430000D01*
X-2540000Y-12760000D02*
X-3870000Y-12760000D01*
X-1270000Y-12760000D02*
X3870000Y-12760000D01*
X-1270000Y-12760000D02*
X-1270000Y-10100000D01*
X3870000Y-12760000D02*
X3870000Y-10100000D01*
X-1270000Y-10100000D02*
X3870000Y-10100000D01*
%TO.C,CONN2*%
X-3870000Y16450000D02*
X-3870000Y17780000D01*
X-2540000Y16450000D02*
X-3870000Y16450000D01*
X-1270000Y16450000D02*
X3870000Y16450000D01*
X-1270000Y16450000D02*
X-1270000Y19110000D01*
X3870000Y16450000D02*
X3870000Y19110000D01*
X-1270000Y19110000D02*
X3870000Y19110000D01*
%TO.C,CONN1*%
X-3870000Y13910000D02*
X-3870000Y15240000D01*
X-2540000Y13910000D02*
X-3870000Y13910000D01*
X-1270000Y13910000D02*
X3870000Y13910000D01*
X-1270000Y13910000D02*
X-1270000Y16570000D01*
X3870000Y13910000D02*
X3870000Y16570000D01*
X-1270000Y16570000D02*
X3870000Y16570000D01*
%TD*%
M02*
