%TF.GenerationSoftware,KiCad,Pcbnew,7.0.8*%
%TF.CreationDate,2024-11-24T19:48:23+00:00*%
%TF.ProjectId,working,776f726b-696e-4672-9e6b-696361645f70,rev?*%
%TF.SameCoordinates,Original*%
%TF.FileFunction,Legend,Top*%
%TF.FilePolarity,Positive*%
%FSLAX46Y46*%
G04 Gerber Fmt 4.6, Leading zero omitted, Abs format (unit mm)*
G04 Created by KiCad (PCBNEW 7.0.8) date 2024-11-24 19:48:23*
%MOMM*%
%LPD*%
G01*
G04 APERTURE LIST*
%ADD10C,0.150000*%
%ADD11C,0.120000*%
G04 APERTURE END LIST*
D10*
X-4510419Y-9358095D02*
X-4462800Y-9405714D01*
X-4462800Y-9405714D02*
X-4415180Y-9548571D01*
X-4415180Y-9548571D02*
X-4415180Y-9643809D01*
X-4415180Y-9643809D02*
X-4462800Y-9786666D01*
X-4462800Y-9786666D02*
X-4558038Y-9881904D01*
X-4558038Y-9881904D02*
X-4653276Y-9929523D01*
X-4653276Y-9929523D02*
X-4843752Y-9977142D01*
X-4843752Y-9977142D02*
X-4986609Y-9977142D01*
X-4986609Y-9977142D02*
X-5177085Y-9929523D01*
X-5177085Y-9929523D02*
X-5272323Y-9881904D01*
X-5272323Y-9881904D02*
X-5367561Y-9786666D01*
X-5367561Y-9786666D02*
X-5415180Y-9643809D01*
X-5415180Y-9643809D02*
X-5415180Y-9548571D01*
X-5415180Y-9548571D02*
X-5367561Y-9405714D01*
X-5367561Y-9405714D02*
X-5319942Y-9358095D01*
X-5415180Y-8739047D02*
X-5415180Y-8548571D01*
X-5415180Y-8548571D02*
X-5367561Y-8453333D01*
X-5367561Y-8453333D02*
X-5272323Y-8358095D01*
X-5272323Y-8358095D02*
X-5081847Y-8310476D01*
X-5081847Y-8310476D02*
X-4748514Y-8310476D01*
X-4748514Y-8310476D02*
X-4558038Y-8358095D01*
X-4558038Y-8358095D02*
X-4462800Y-8453333D01*
X-4462800Y-8453333D02*
X-4415180Y-8548571D01*
X-4415180Y-8548571D02*
X-4415180Y-8739047D01*
X-4415180Y-8739047D02*
X-4462800Y-8834285D01*
X-4462800Y-8834285D02*
X-4558038Y-8929523D01*
X-4558038Y-8929523D02*
X-4748514Y-8977142D01*
X-4748514Y-8977142D02*
X-5081847Y-8977142D01*
X-5081847Y-8977142D02*
X-5272323Y-8929523D01*
X-5272323Y-8929523D02*
X-5367561Y-8834285D01*
X-5367561Y-8834285D02*
X-5415180Y-8739047D01*
X-4415180Y-7881904D02*
X-5415180Y-7881904D01*
X-5415180Y-7881904D02*
X-4415180Y-7310476D01*
X-4415180Y-7310476D02*
X-5415180Y-7310476D01*
X-4415180Y-6834285D02*
X-5415180Y-6834285D01*
X-5415180Y-6834285D02*
X-4415180Y-6262857D01*
X-4415180Y-6262857D02*
X-5415180Y-6262857D01*
X-5415180Y-5881904D02*
X-5415180Y-5262857D01*
X-5415180Y-5262857D02*
X-5034228Y-5596190D01*
X-5034228Y-5596190D02*
X-5034228Y-5453333D01*
X-5034228Y-5453333D02*
X-4986609Y-5358095D01*
X-4986609Y-5358095D02*
X-4938990Y-5310476D01*
X-4938990Y-5310476D02*
X-4843752Y-5262857D01*
X-4843752Y-5262857D02*
X-4605657Y-5262857D01*
X-4605657Y-5262857D02*
X-4510419Y-5310476D01*
X-4510419Y-5310476D02*
X-4462800Y-5358095D01*
X-4462800Y-5358095D02*
X-4415180Y-5453333D01*
X-4415180Y-5453333D02*
X-4415180Y-5739047D01*
X-4415180Y-5739047D02*
X-4462800Y-5834285D01*
X-4462800Y-5834285D02*
X-4510419Y-5881904D01*
X-6583333Y295180D02*
X-6916666Y771371D01*
X-7154761Y295180D02*
X-7154761Y1295180D01*
X-7154761Y1295180D02*
X-6773809Y1295180D01*
X-6773809Y1295180D02*
X-6678571Y1247561D01*
X-6678571Y1247561D02*
X-6630952Y1199942D01*
X-6630952Y1199942D02*
X-6583333Y1104704D01*
X-6583333Y1104704D02*
X-6583333Y961847D01*
X-6583333Y961847D02*
X-6630952Y866609D01*
X-6630952Y866609D02*
X-6678571Y818990D01*
X-6678571Y818990D02*
X-6773809Y771371D01*
X-6773809Y771371D02*
X-7154761Y771371D01*
X-6154761Y818990D02*
X-5821428Y818990D01*
X-5678571Y295180D02*
X-6154761Y295180D01*
X-6154761Y295180D02*
X-6154761Y1295180D01*
X-6154761Y1295180D02*
X-5678571Y1295180D01*
X-4916666Y818990D02*
X-5249999Y818990D01*
X-5249999Y295180D02*
X-5249999Y1295180D01*
X-5249999Y1295180D02*
X-4773809Y1295180D01*
X-4249999Y1295180D02*
X-4249999Y1057085D01*
X-4488094Y1152323D02*
X-4249999Y1057085D01*
X-4249999Y1057085D02*
X-4011904Y1152323D01*
X-4392856Y866609D02*
X-4249999Y1057085D01*
X-4249999Y1057085D02*
X-4107142Y866609D01*
X-3488094Y1295180D02*
X-3488094Y1057085D01*
X-3726189Y1152323D02*
X-3488094Y1057085D01*
X-3488094Y1057085D02*
X-3249999Y1152323D01*
X-3630951Y866609D02*
X-3488094Y1057085D01*
X-3488094Y1057085D02*
X-3345237Y866609D01*
X3916666Y295180D02*
X3583333Y771371D01*
X3345238Y295180D02*
X3345238Y1295180D01*
X3345238Y1295180D02*
X3726190Y1295180D01*
X3726190Y1295180D02*
X3821428Y1247561D01*
X3821428Y1247561D02*
X3869047Y1199942D01*
X3869047Y1199942D02*
X3916666Y1104704D01*
X3916666Y1104704D02*
X3916666Y961847D01*
X3916666Y961847D02*
X3869047Y866609D01*
X3869047Y866609D02*
X3821428Y818990D01*
X3821428Y818990D02*
X3726190Y771371D01*
X3726190Y771371D02*
X3345238Y771371D01*
X4345238Y818990D02*
X4678571Y818990D01*
X4821428Y295180D02*
X4345238Y295180D01*
X4345238Y295180D02*
X4345238Y1295180D01*
X4345238Y1295180D02*
X4821428Y1295180D01*
X5583333Y818990D02*
X5250000Y818990D01*
X5250000Y295180D02*
X5250000Y1295180D01*
X5250000Y1295180D02*
X5726190Y1295180D01*
X6250000Y1295180D02*
X6250000Y1057085D01*
X6011905Y1152323D02*
X6250000Y1057085D01*
X6250000Y1057085D02*
X6488095Y1152323D01*
X6107143Y866609D02*
X6250000Y1057085D01*
X6250000Y1057085D02*
X6392857Y866609D01*
X7011905Y1295180D02*
X7011905Y1057085D01*
X6773810Y1152323D02*
X7011905Y1057085D01*
X7011905Y1057085D02*
X7250000Y1152323D01*
X6869048Y866609D02*
X7011905Y1057085D01*
X7011905Y1057085D02*
X7154762Y866609D01*
X-4510419Y-13168095D02*
X-4462800Y-13215714D01*
X-4462800Y-13215714D02*
X-4415180Y-13358571D01*
X-4415180Y-13358571D02*
X-4415180Y-13453809D01*
X-4415180Y-13453809D02*
X-4462800Y-13596666D01*
X-4462800Y-13596666D02*
X-4558038Y-13691904D01*
X-4558038Y-13691904D02*
X-4653276Y-13739523D01*
X-4653276Y-13739523D02*
X-4843752Y-13787142D01*
X-4843752Y-13787142D02*
X-4986609Y-13787142D01*
X-4986609Y-13787142D02*
X-5177085Y-13739523D01*
X-5177085Y-13739523D02*
X-5272323Y-13691904D01*
X-5272323Y-13691904D02*
X-5367561Y-13596666D01*
X-5367561Y-13596666D02*
X-5415180Y-13453809D01*
X-5415180Y-13453809D02*
X-5415180Y-13358571D01*
X-5415180Y-13358571D02*
X-5367561Y-13215714D01*
X-5367561Y-13215714D02*
X-5319942Y-13168095D01*
X-5415180Y-12549047D02*
X-5415180Y-12358571D01*
X-5415180Y-12358571D02*
X-5367561Y-12263333D01*
X-5367561Y-12263333D02*
X-5272323Y-12168095D01*
X-5272323Y-12168095D02*
X-5081847Y-12120476D01*
X-5081847Y-12120476D02*
X-4748514Y-12120476D01*
X-4748514Y-12120476D02*
X-4558038Y-12168095D01*
X-4558038Y-12168095D02*
X-4462800Y-12263333D01*
X-4462800Y-12263333D02*
X-4415180Y-12358571D01*
X-4415180Y-12358571D02*
X-4415180Y-12549047D01*
X-4415180Y-12549047D02*
X-4462800Y-12644285D01*
X-4462800Y-12644285D02*
X-4558038Y-12739523D01*
X-4558038Y-12739523D02*
X-4748514Y-12787142D01*
X-4748514Y-12787142D02*
X-5081847Y-12787142D01*
X-5081847Y-12787142D02*
X-5272323Y-12739523D01*
X-5272323Y-12739523D02*
X-5367561Y-12644285D01*
X-5367561Y-12644285D02*
X-5415180Y-12549047D01*
X-4415180Y-11691904D02*
X-5415180Y-11691904D01*
X-5415180Y-11691904D02*
X-4415180Y-11120476D01*
X-4415180Y-11120476D02*
X-5415180Y-11120476D01*
X-4415180Y-10644285D02*
X-5415180Y-10644285D01*
X-5415180Y-10644285D02*
X-4415180Y-10072857D01*
X-4415180Y-10072857D02*
X-5415180Y-10072857D01*
X-5319942Y-9644285D02*
X-5367561Y-9596666D01*
X-5367561Y-9596666D02*
X-5415180Y-9501428D01*
X-5415180Y-9501428D02*
X-5415180Y-9263333D01*
X-5415180Y-9263333D02*
X-5367561Y-9168095D01*
X-5367561Y-9168095D02*
X-5319942Y-9120476D01*
X-5319942Y-9120476D02*
X-5224704Y-9072857D01*
X-5224704Y-9072857D02*
X-5129466Y-9072857D01*
X-5129466Y-9072857D02*
X-4986609Y-9120476D01*
X-4986609Y-9120476D02*
X-4415180Y-9691904D01*
X-4415180Y-9691904D02*
X-4415180Y-9072857D01*
X-8320419Y13501904D02*
X-8272800Y13454285D01*
X-8272800Y13454285D02*
X-8225180Y13311428D01*
X-8225180Y13311428D02*
X-8225180Y13216190D01*
X-8225180Y13216190D02*
X-8272800Y13073333D01*
X-8272800Y13073333D02*
X-8368038Y12978095D01*
X-8368038Y12978095D02*
X-8463276Y12930476D01*
X-8463276Y12930476D02*
X-8653752Y12882857D01*
X-8653752Y12882857D02*
X-8796609Y12882857D01*
X-8796609Y12882857D02*
X-8987085Y12930476D01*
X-8987085Y12930476D02*
X-9082323Y12978095D01*
X-9082323Y12978095D02*
X-9177561Y13073333D01*
X-9177561Y13073333D02*
X-9225180Y13216190D01*
X-9225180Y13216190D02*
X-9225180Y13311428D01*
X-9225180Y13311428D02*
X-9177561Y13454285D01*
X-9177561Y13454285D02*
X-9129942Y13501904D01*
X-9225180Y14120952D02*
X-9225180Y14311428D01*
X-9225180Y14311428D02*
X-9177561Y14406666D01*
X-9177561Y14406666D02*
X-9082323Y14501904D01*
X-9082323Y14501904D02*
X-8891847Y14549523D01*
X-8891847Y14549523D02*
X-8558514Y14549523D01*
X-8558514Y14549523D02*
X-8368038Y14501904D01*
X-8368038Y14501904D02*
X-8272800Y14406666D01*
X-8272800Y14406666D02*
X-8225180Y14311428D01*
X-8225180Y14311428D02*
X-8225180Y14120952D01*
X-8225180Y14120952D02*
X-8272800Y14025714D01*
X-8272800Y14025714D02*
X-8368038Y13930476D01*
X-8368038Y13930476D02*
X-8558514Y13882857D01*
X-8558514Y13882857D02*
X-8891847Y13882857D01*
X-8891847Y13882857D02*
X-9082323Y13930476D01*
X-9082323Y13930476D02*
X-9177561Y14025714D01*
X-9177561Y14025714D02*
X-9225180Y14120952D01*
X-8225180Y14978095D02*
X-9225180Y14978095D01*
X-9225180Y14978095D02*
X-8225180Y15549523D01*
X-8225180Y15549523D02*
X-9225180Y15549523D01*
X-8225180Y16025714D02*
X-9225180Y16025714D01*
X-9225180Y16025714D02*
X-8225180Y16597142D01*
X-8225180Y16597142D02*
X-9225180Y16597142D01*
X-8225180Y17597142D02*
X-8225180Y17025714D01*
X-8225180Y17311428D02*
X-9225180Y17311428D01*
X-9225180Y17311428D02*
X-9082323Y17216190D01*
X-9082323Y17216190D02*
X-8987085Y17120952D01*
X-8987085Y17120952D02*
X-8939466Y17025714D01*
D11*
%TO.C,CONN3*%
X-1270000Y-6290000D02*
X6410000Y-6290000D01*
X-2540000Y-8950000D02*
X-3870000Y-8950000D01*
X6410000Y-8950000D02*
X6410000Y-6290000D01*
X-1270000Y-8950000D02*
X-1270000Y-6290000D01*
X-3870000Y-8950000D02*
X-3870000Y-7620000D01*
X-1270000Y-8950000D02*
X6410000Y-8950000D01*
%TO.C,CONN2*%
X3870000Y-12760000D02*
X3870000Y-10100000D01*
X-1270000Y-12760000D02*
X3870000Y-12760000D01*
X-2540000Y-12760000D02*
X-3870000Y-12760000D01*
X-1270000Y-10100000D02*
X3870000Y-10100000D01*
X-3870000Y-12760000D02*
X-3870000Y-11430000D01*
X-1270000Y-12760000D02*
X-1270000Y-10100000D01*
%TO.C,CONN1*%
X-5080000Y13910000D02*
X7680000Y13910000D01*
X-6350000Y13910000D02*
X-7680000Y13910000D01*
X-7680000Y13910000D02*
X-7680000Y15240000D01*
X-5080000Y13910000D02*
X-5080000Y16570000D01*
X7680000Y13910000D02*
X7680000Y16570000D01*
X-5080000Y16570000D02*
X7680000Y16570000D01*
%TD*%
M02*
